<svg xmlns="http://www.w3.org/2000/svg" viewBox="0 0 280 64" role="img" aria-label="Eletroclima Energia">
  <g transform="translate(32 32)">
    <g fill="#f39200">
      <path d="M0 -22 L6 -6 L22 -6 L9 4 L15 20 L0 10 L-15 20 L-9 4 L-22 -6 L-6 -6 Z"/>
      <path d="M0 -22 L6 -6 L22 -6 L9 4 L15 20 L0 10 L-15 20 L-9 4 L-22 -6 L-6 -6 Z" transform="rotate(45)"/>
      <path d="M0 -22 L6 -6 L22 -6 L9 4 L15 20 L0 10 L-15 20 L-9 4 L-22 -6 L-6 -6 Z" transform="rotate(90)"/>
      <path d="M0 -22 L6 -6 L22 -6 L9 4 L15 20 L0 10 L-15 20 L-9 4 L-22 -6 L-6 -6 Z" transform="rotate(135)"/>
    </g>
    <circle cx="0" cy="0" r="11" fill="#fff"/>
  </g>
  <text x="72" y="36" font-family="Arial, Helvetica, sans-serif" font-size="26" font-weight="700" fill="#1a2744">Eletroclima</text>
  <text x="72" y="54" font-family="Arial, Helvetica, sans-serif" font-size="10" font-weight="600" letter-spacing="3.5" fill="#1a2744">ENERGIA</text>
</svg>
